<svg width="24" height="24" viewBox="0 0 24 24" fill="none" xmlns="http://www.w3.org/2000/svg">
<path d="M21.9805 0.000416645C21.9432 0.0015943 21.906 0.00485461 21.8691 0.0101823H16C15.8675 0.00830822 15.7359 0.0327895 15.613 0.0822033C15.49 0.131617 15.3781 0.204978 15.2837 0.298022C15.1893 0.391067 15.1144 0.501939 15.0632 0.624196C15.0121 0.746454 14.9858 0.877657 14.9858 1.01018C14.9858 1.14271 15.0121 1.27391 15.0632 1.39617C15.1144 1.51843 15.1893 1.6293 15.2837 1.72234C15.3781 1.81539 15.49 1.88875 15.613 1.93816C15.7359 1.98758 15.8675 2.01206 16 2.01018H19.5859L9.29297 12.3032C9.19699 12.3953 9.12037 12.5057 9.06758 12.6278C9.0148 12.7499 8.98691 12.8814 8.98556 13.0144C8.9842 13.1474 9.00941 13.2794 9.0597 13.4026C9.10999 13.5258 9.18435 13.6377 9.27843 13.7318C9.37251 13.8258 9.48441 13.9002 9.60759 13.9505C9.73077 14.0008 9.86274 14.026 9.99578 14.0246C10.1288 14.0233 10.2603 13.9954 10.3824 13.9426C10.5045 13.8898 10.6149 13.8132 10.707 13.7172L21 3.42424V7.01018C20.9981 7.14269 21.0226 7.27426 21.072 7.39723C21.1214 7.52019 21.1948 7.63211 21.2878 7.72648C21.3809 7.82085 21.4918 7.89579 21.614 7.94694C21.7363 7.99809 21.8675 8.02442 22 8.02442C22.1325 8.02442 22.2637 7.99809 22.386 7.94694C22.5082 7.89579 22.6191 7.82085 22.7122 7.72648C22.8052 7.63211 22.8786 7.52019 22.928 7.39723C22.9774 7.27426 23.0019 7.14269 23 7.01018V1.13714C23.0199 0.993161 23.0082 0.846575 22.9657 0.707585C22.9232 0.568596 22.8509 0.440542 22.7538 0.332342C22.6568 0.224141 22.5373 0.138393 22.4038 0.0810689C22.2702 0.0237447 22.1258 -0.00377818 21.9805 0.000416645V0.000416645ZM2 4.01018C0.906937 4.01018 0 4.91712 0 6.01018V21.0102C0 22.1032 0.906937 23.0102 2 23.0102H17C18.0931 23.0102 19 22.1032 19 21.0102V11.0102V8.43206L17 10.4321V13.0102V21.0102H2V6.01018H10H12H12.5781L14.5781 4.01018H12H10H2Z" fill="black"/>
</svg>
