<svg width="30" height="30" viewBox="0 0 30 30" fill="none" xmlns="http://www.w3.org/2000/svg">
<path d="M13.6249 2.62497C7.87489 3.24997 3.24989 7.87497 2.62489 13.5C1.99989 19.375 5.37489 24.625 10.4999 26.625C10.8749 26.75 11.2499 26.5 11.2499 26V24C11.2499 24 10.7499 24.125 10.1249 24.125C8.37489 24.125 7.62489 22.625 7.49989 21.75C7.37489 21.25 7.12489 20.875 6.74989 20.5C6.37489 20.375 6.24989 20.375 6.24989 20.25C6.24989 20 6.62489 20 6.74989 20C7.49989 20 8.12489 20.875 8.37489 21.25C8.99989 22.25 9.74989 22.5 10.1249 22.5C10.6249 22.5 10.9999 22.375 11.2499 22.25C11.3749 21.375 11.7499 20.5 12.4999 20C9.62489 19.375 7.49989 17.75 7.49989 15C7.49989 13.625 8.12489 12.25 8.99989 11.25C8.87489 11 8.74989 10.375 8.74989 9.49997C8.74989 8.99997 8.74989 8.24997 9.12489 7.49997C9.12489 7.49997 10.8749 7.49997 12.6249 9.12497C13.2499 8.87497 14.1249 8.74997 14.9999 8.74997C15.8749 8.74997 16.7499 8.87497 17.4999 9.12497C19.1249 7.49997 20.9999 7.49997 20.9999 7.49997C21.2499 8.24997 21.2499 8.99997 21.2499 9.49997C21.2499 10.5 21.1249 11 20.9999 11.25C21.8749 12.25 22.4999 13.5 22.4999 15C22.4999 17.75 20.3749 19.375 17.4999 20C18.2499 20.625 18.7499 21.75 18.7499 22.875V26.125C18.7499 26.5 19.1249 26.875 19.6249 26.75C24.2499 24.875 27.4999 20.375 27.4999 15.125C27.4999 7.62497 21.1249 1.74997 13.6249 2.62497Z" fill="black"/>
</svg>
