<svg width="262" height="47" viewBox="0 0 262 47" fill="none" xmlns="http://www.w3.org/2000/svg">
<rect width="46.2802" height="46.2802" rx="23.1401" fill="#2E3039"/>
<g clip-path="url(#clip0_30_7)">
<path d="M23.0575 9.98909L23.7633 11.3147C23.9219 11.5593 24.0938 11.7758 24.2963 11.9775C24.8872 12.5684 25.4483 13.1874 25.9525 13.8502C27.1483 15.4204 27.9549 17.1642 28.5309 19.0501C28.8764 20.2021 29.064 21.3839 29.078 22.579C29.1359 26.1516 27.9111 29.2194 25.4417 31.7689C25.0384 32.1722 24.607 32.5457 24.1442 32.878C23.8996 32.878 23.7839 32.6904 23.6831 32.5176C23.4955 32.2011 23.3806 31.84 23.3228 31.4805C23.236 31.0482 23.179 30.616 23.2071 30.1698V29.9681C23.1872 29.9251 22.9715 10.0907 23.0575 9.98909Z" fill="#599636"/>
<path d="M23.0575 9.94529C23.0286 9.88744 22.9996 9.93124 22.9707 9.95934C22.9848 10.2486 22.8839 10.5064 22.7261 10.7527C22.5525 10.9973 22.3228 11.1849 22.0922 11.3866C20.8112 12.4957 19.803 13.8353 18.9956 15.3336C17.9212 17.3501 17.3675 19.5112 17.2105 21.7864C17.1386 22.6071 17.47 25.5029 17.7286 26.3384C18.4344 28.5566 19.7022 30.4152 21.3443 32.0284C21.7476 32.4168 22.179 32.7771 22.6253 33.1234C22.755 33.1234 22.7691 33.0077 22.7988 32.9218C22.8557 32.7379 22.8991 32.55 22.9286 32.3598L23.2178 30.1995L23.0575 9.94529Z" fill="#6CAC48"/>
<path d="M23.7632 33.7556C23.7922 33.4251 23.9509 33.1507 24.1236 32.8771C23.95 32.8052 23.8211 32.6623 23.7203 32.5028C23.6335 32.359 23.5616 32.1862 23.5054 32.0276C23.3038 31.4226 23.2608 30.7879 23.2029 30.1698V29.7954C23.131 29.8532 23.1162 30.3425 23.1162 30.4152C23.0741 31.0686 22.9874 31.7183 22.8567 32.3598C22.8137 32.6193 22.7848 32.878 22.6253 33.1085C22.6253 33.1375 22.6253 33.1664 22.6393 33.2094C22.8988 33.973 22.9699 34.7507 23.0137 35.5432V35.8325C23.0137 36.1779 22.9996 36.1052 23.2864 36.2209C23.4021 36.2639 23.531 36.2787 23.6467 36.3647C23.7335 36.3647 23.7475 36.2928 23.7475 36.2349L23.7046 35.7597V34.4341C23.6905 34.2027 23.7335 33.973 23.7624 33.7565L23.7632 33.7556Z" fill="#C2BFBF"/>
</g>
<rect x="215.699" width="46.2802" height="46.2802" rx="23.1401" fill="#2E3039"/>
<g clip-path="url(#clip1_30_7)">
<path d="M237.728 10.2701C238.389 9.8957 239.232 9.89405 239.877 10.2701L249.748 15.8345C250.365 16.1816 250.779 16.87 250.773 17.5815V28.7384C250.777 29.4797 250.323 30.183 249.672 30.5235L239.854 36.0622C239.518 36.2478 239.139 36.3401 238.755 36.3295C238.372 36.3188 237.998 36.2057 237.673 36.0019L234.727 34.2994C234.526 34.1796 234.3 34.0846 234.158 33.8904C234.284 33.7218 234.507 33.7003 234.689 33.6259C235.099 33.4953 235.474 33.2953 235.851 33.0838C235.946 33.0176 236.062 33.0424 236.153 33.1019L238.666 34.5548C238.845 34.6581 239.027 34.5217 239.18 34.435L248.821 28.9946C248.94 28.9367 249.006 28.8111 248.996 28.6805V17.6311C249.009 17.4824 248.924 17.3468 248.789 17.2865L238.996 11.7717C238.94 11.7327 238.873 11.7117 238.804 11.7115C238.735 11.7114 238.668 11.7321 238.612 11.7709L228.833 17.2972C228.7 17.3576 228.609 17.4914 228.626 17.6402V28.6896C228.614 28.8202 228.684 28.9433 228.804 28.9995L231.417 30.4747C231.908 30.7392 232.51 30.8879 233.051 30.6937C233.287 30.6046 233.491 30.4453 233.634 30.2371C233.778 30.029 233.854 29.782 233.853 29.5293L233.856 18.546C233.844 18.3832 233.998 18.2485 234.156 18.265H235.412C235.577 18.2609 235.707 18.4361 235.685 18.5997L235.682 29.6524C235.683 30.6342 235.28 31.702 234.371 32.1838C233.252 32.7623 231.869 32.6408 230.763 32.0846L227.953 30.5309C227.292 30.2003 226.848 29.4863 226.852 28.7458V17.589C226.855 17.2264 226.955 16.8711 227.141 16.56C227.328 16.2488 227.594 15.9932 227.912 15.8196L237.728 10.2701ZM240.575 18.0038C242.002 17.9212 243.53 17.9493 244.814 18.6526C245.808 19.1914 246.36 20.322 246.378 21.4277C246.35 21.5765 246.194 21.6591 246.052 21.6484C245.639 21.6476 245.224 21.6542 244.809 21.6459C244.633 21.6525 244.532 21.4906 244.509 21.3352C244.39 20.8063 244.102 20.2831 243.604 20.0278C242.841 19.6451 241.955 19.6641 241.122 19.6724C240.513 19.7055 239.86 19.7575 239.345 20.1145C238.948 20.3856 238.829 20.941 238.97 21.3724C239.103 21.6889 239.469 21.7906 239.767 21.8848C241.488 22.3343 243.31 22.298 244.998 22.8823C245.697 23.1236 246.38 23.593 246.62 24.3244C246.932 25.3045 246.796 26.4764 246.099 27.2632C245.534 27.9111 244.711 28.2549 243.889 28.4549C242.795 28.6987 241.661 28.7045 240.551 28.5954C239.508 28.4764 238.422 28.202 237.616 27.4913C236.927 26.8929 236.591 25.9607 236.624 25.0616C236.632 24.9095 236.784 24.8037 236.93 24.8161H238.17C238.337 24.8046 238.459 24.9484 238.467 25.1054C238.544 25.6012 238.733 26.1384 239.173 26.4277C240.021 26.9748 241.084 26.9367 242.055 26.9524C242.859 26.9169 243.761 26.9062 244.418 26.3739C244.765 26.0706 244.867 25.564 244.774 25.1277C244.672 24.7591 244.278 24.588 243.947 24.4665C242.249 23.9294 240.406 24.1244 238.724 23.5161C238.042 23.2748 237.381 22.8186 237.119 22.117C236.753 21.1253 236.921 19.8964 237.692 19.136C238.436 18.3799 239.527 18.0881 240.56 17.984L240.575 18.0038Z" fill="#8CC84B"/>
</g>
<rect x="144.012" width="46.2802" height="46.2802" rx="23.1401" fill="#2E3039"/>
<path d="M167.552 24.4924C168.078 24.4924 168.504 24.0662 168.504 23.5404C168.504 23.0146 168.078 22.5884 167.552 22.5884C167.027 22.5884 166.6 23.0146 166.6 23.5404C166.6 24.0662 167.027 24.4924 167.552 24.4924Z" fill="#00D8FF"/>
<path fill-rule="evenodd" clip-rule="evenodd" d="M167.553 19.006C170.533 19.006 173.302 19.4338 175.39 20.1525C177.906 21.0186 179.452 22.3313 179.452 23.5199C179.452 24.7586 177.813 26.1532 175.112 27.0482C173.07 27.7248 170.382 28.0781 167.553 28.0781C164.651 28.0781 161.904 27.7465 159.839 27.0408C157.226 26.1476 155.652 24.735 155.652 23.5199C155.652 22.3409 157.129 21.0384 159.609 20.1736C161.705 19.443 164.542 19.006 167.552 19.006H167.553Z" stroke="#00D8FF"/>
<path fill-rule="evenodd" clip-rule="evenodd" d="M163.623 21.276C165.112 18.6939 166.866 16.5088 168.532 15.0592C170.539 13.3127 172.448 12.6287 173.478 13.2225C174.551 13.8413 174.94 15.958 174.366 18.7452C173.932 20.8524 172.895 23.357 171.482 25.8081C170.033 28.3212 168.373 30.5353 166.73 31.9714C164.651 33.7888 162.641 34.4465 161.588 33.8395C160.567 33.2509 160.176 31.3206 160.666 28.74C161.08 26.5596 162.119 23.8834 163.623 21.276L163.623 21.276Z" stroke="#00D8FF"/>
<path fill-rule="evenodd" clip-rule="evenodd" d="M163.627 25.8147C162.133 23.2355 161.117 20.6243 160.692 18.4573C160.181 15.8463 160.543 13.85 161.571 13.2545C162.643 12.6339 164.672 13.3538 166.799 15.2433C168.408 16.6718 170.06 18.8206 171.478 21.2695C172.932 23.7801 174.021 26.3237 174.445 28.4643C174.981 31.1732 174.547 33.243 173.495 33.8518C172.475 34.4425 170.608 33.8171 168.617 32.1038C166.935 30.6562 165.135 28.4195 163.627 25.8147Z" stroke="#00D8FF"/>
<rect x="67" width="46.2802" height="46.2802" rx="23.1401" fill="#2E3039"/>
<path d="M89.14 24.18H80.34C80.42 25.2733 80.84 26.16 81.6 26.84C82.36 27.5067 83.32 27.84 84.48 27.84C85.1333 27.84 85.7333 27.7267 86.28 27.5C86.8267 27.26 87.3 26.9133 87.7 26.46L88.5 27.38C88.0333 27.94 87.4467 28.3667 86.74 28.66C86.0467 28.9533 85.28 29.1 84.44 29.1C83.36 29.1 82.4 28.8733 81.56 28.42C80.7333 27.9533 80.0867 27.3133 79.62 26.5C79.1533 25.6867 78.92 24.7667 78.92 23.74C78.92 22.7133 79.14 21.7933 79.58 20.98C80.0333 20.1667 80.6467 19.5333 81.42 19.08C82.2067 18.6267 83.0867 18.4 84.06 18.4C85.0333 18.4 85.9067 18.6267 86.68 19.08C87.4533 19.5333 88.06 20.1667 88.5 20.98C88.94 21.78 89.16 22.7 89.16 23.74L89.14 24.18ZM84.06 19.62C83.0467 19.62 82.1933 19.9467 81.5 20.6C80.82 21.24 80.4333 22.08 80.34 23.12H87.8C87.7067 22.08 87.3133 21.24 86.62 20.6C85.94 19.9467 85.0867 19.62 84.06 19.62ZM98.4573 29L95.1173 24.6L91.7573 29H90.1573L94.3173 23.6L90.3573 18.48H91.9573L95.1173 22.6L98.2773 18.48H99.8373L95.8773 23.6L100.077 29H98.4573Z" fill="#FF6B35"/>
<defs>
<clipPath id="clip0_30_7">
<rect width="26.4458" height="26.4458" fill="white" transform="translate(9.9172 9.91719)"/>
</clipPath>
<clipPath id="clip1_30_7">
<rect width="26.4458" height="26.4458" fill="white" transform="translate(225.616 9.91719)"/>
</clipPath>
</defs>
</svg>
